<svg width="20" height="20" viewBox="0 0 20 20" fill="none" xmlns="http://www.w3.org/2000/svg">
<rect width="20" height="20" fill="#E5E5E5"/>
<g id="Vetrina Live Dashboard">
<rect width="1440" height="1457" transform="translate(-20 -217)" fill="#F8F9FB"/>
<g id="New Drawer / Large">
<rect width="255" height="1152" transform="translate(-20 -217)" fill="#F7F7F7"/>
<g id="menu intero">
<g id="1 menu">
<g id="Frame 227">
<g id="Frame 243">
<rect x="-13" y="-6" width="248" height="32" rx="4" fill="#F7F7F7"/>
<g id="Frame 791">
<g id="Icon / target" clip-path="url(#clip0_0_1)">
<path id="Vector" d="M10 18.3333C14.6024 18.3333 18.3334 14.6024 18.3334 9.99999C18.3334 5.39762 14.6024 1.66666 10 1.66666C5.39765 1.66666 1.66669 5.39762 1.66669 9.99999C1.66669 14.6024 5.39765 18.3333 10 18.3333Z" stroke="#21B8F9" stroke-width="1.5" stroke-linecap="round" stroke-linejoin="round"/>
<path id="Vector_2" d="M10 15C12.7614 15 15 12.7614 15 10C15 7.23858 12.7614 5 10 5C7.23858 5 5 7.23858 5 10C5 12.7614 7.23858 15 10 15Z" stroke="#21B8F9" stroke-width="1.5" stroke-linecap="round" stroke-linejoin="round"/>
<path id="Vector_3" d="M9.99998 11.6667C10.9205 11.6667 11.6666 10.9205 11.6666 10C11.6666 9.07954 10.9205 8.33334 9.99998 8.33334C9.0795 8.33334 8.33331 9.07954 8.33331 10C8.33331 10.9205 9.0795 11.6667 9.99998 11.6667Z" stroke="#21B8F9" stroke-width="1.5" stroke-linecap="round" stroke-linejoin="round"/>
</g>
</g>
</g>
</g>
</g>
</g>
</g>
</g>
<defs>
<clipPath id="clip0_0_1">
<rect width="20" height="20" fill="white"/>
</clipPath>
</defs>
</svg>
