<svg width="20" height="20" viewBox="0 0 20 20" fill="none" xmlns="http://www.w3.org/2000/svg">
<rect width="20" height="20" fill="#E5E5E5"/>
<g id="Vetrina Live Dashboard">
<rect width="1440" height="1457" transform="translate(-20 -926)" fill="#F8F9FB"/>
<g id="New Drawer / Large">
<rect width="255" height="1152" transform="translate(-20 -926)" fill="#F7F7F7"/>
<g id="menu intero">
<g id="2 menu">
<g id="Frame 236">
<g id="Frame 243">
<g id="Frame 791">
<g id="Icon / share-2">
<path id="Vector" d="M15 6.66667C16.3807 6.66667 17.5 5.54738 17.5 4.16667C17.5 2.78596 16.3807 1.66667 15 1.66667C13.6193 1.66667 12.5 2.78596 12.5 4.16667C12.5 5.54738 13.6193 6.66667 15 6.66667Z" stroke="#21B8F9" stroke-width="1.5" stroke-linecap="round" stroke-linejoin="round"/>
<path id="Vector_2" d="M5 12.5C6.38071 12.5 7.5 11.3807 7.5 10C7.5 8.61929 6.38071 7.5 5 7.5C3.61929 7.5 2.5 8.61929 2.5 10C2.5 11.3807 3.61929 12.5 5 12.5Z" stroke="#21B8F9" stroke-width="1.5" stroke-linecap="round" stroke-linejoin="round"/>
<path id="Vector_3" d="M15 18.3333C16.3807 18.3333 17.5 17.214 17.5 15.8333C17.5 14.4526 16.3807 13.3333 15 13.3333C13.6193 13.3333 12.5 14.4526 12.5 15.8333C12.5 17.214 13.6193 18.3333 15 18.3333Z" stroke="#21B8F9" stroke-width="1.5" stroke-linecap="round" stroke-linejoin="round"/>
<path id="Vector_4" d="M7.15833 11.2583L12.85 14.575" stroke="#21B8F9" stroke-width="1.5" stroke-linecap="round" stroke-linejoin="round"/>
<path id="Vector_5" d="M12.8417 5.425L7.15833 8.74167" stroke="#21B8F9" stroke-width="1.5" stroke-linecap="round" stroke-linejoin="round"/>
</g>
</g>
</g>
</g>
</g>
</g>
</g>
</g>
</svg>
