<svg width="20" height="20" viewBox="0 0 20 20" fill="none" xmlns="http://www.w3.org/2000/svg">
<rect width="20" height="20" fill="#E5E5E5"/>
<g id="Vetrina Live Dashboard">
<rect width="1440" height="1457" transform="translate(-20 -958)" fill="#F8F9FB"/>
<g id="New Drawer / Large">
<rect width="255" height="1152" transform="translate(-20 -958)" fill="white"/>
<g id="menu intero">
<g id="2 menu">
<g id="Frame 237">
<g id="Frame 243">
<g id="Frame 791">
<g id="Icon / eye">
<path id="Vector" d="M0.833313 9.99999C0.833313 9.99999 4.16665 3.33333 9.99998 3.33333C15.8333 3.33333 19.1666 9.99999 19.1666 9.99999C19.1666 9.99999 15.8333 16.6667 9.99998 16.6667C4.16665 16.6667 0.833313 9.99999 0.833313 9.99999Z" stroke="#103B66" stroke-width="1.5" stroke-linecap="round" stroke-linejoin="round"/>
<path id="Vector_2" d="M10 12.5C11.3807 12.5 12.5 11.3807 12.5 10C12.5 8.61929 11.3807 7.5 10 7.5C8.61929 7.5 7.5 8.61929 7.5 10C7.5 11.3807 8.61929 12.5 10 12.5Z" stroke="#103B66" stroke-width="1.5" stroke-linecap="round" stroke-linejoin="round"/>
</g>
</g>
</g>
</g>
</g>
</g>
</g>
</g>
</svg>
