<svg width="153" height="150" viewBox="0 0 153 150" fill="none" xmlns="http://www.w3.org/2000/svg">
<g id="Frame 239">
<rect width="153" height="150" rx="10" fill="#00C48C"/>
<path id="+100 Prodotti" d="M52.8787 73.634V67.208H46.7927V64.352H52.8787V57.926H55.8367V64.352H61.9227V67.208H55.8367V73.634H52.8787ZM65.5844 77V73.804H70.4124V59.592H66.4344V57.144C67.5224 56.94 68.4517 56.702 69.2224 56.43C70.0157 56.1353 70.7524 55.784 71.4324 55.376H74.3564V73.804H78.6064V77H65.5844ZM89.204 77.408C86.9373 77.408 85.1467 76.4447 83.832 74.518C82.5173 72.5687 81.86 69.758 81.86 66.086C81.86 62.414 82.5173 59.6487 83.832 57.79C85.1467 55.9087 86.9373 54.968 89.204 54.968C91.4707 54.968 93.2613 55.9087 94.576 57.79C95.8907 59.6713 96.548 62.4367 96.548 66.086C96.548 69.758 95.8907 72.5687 94.576 74.518C93.2613 76.4447 91.4707 77.408 89.204 77.408ZM89.204 74.348C89.7253 74.348 90.2013 74.212 90.632 73.94C91.0853 73.6453 91.4707 73.1693 91.788 72.512C92.1053 71.8547 92.3547 71.0047 92.536 69.962C92.7173 68.9193 92.808 67.6273 92.808 66.086C92.808 64.5673 92.7173 63.298 92.536 62.278C92.3547 61.2353 92.1053 60.3967 91.788 59.762C91.4707 59.1273 91.0853 58.6853 90.632 58.436C90.2013 58.164 89.7253 58.028 89.204 58.028C88.6827 58.028 88.1953 58.164 87.742 58.436C87.3113 58.6853 86.9373 59.1273 86.62 59.762C86.3027 60.3967 86.0533 61.2353 85.872 62.278C85.6907 63.298 85.6 64.5673 85.6 66.086C85.6 67.6273 85.6907 68.9193 85.872 69.962C86.0533 71.0047 86.3027 71.8547 86.62 72.512C86.9373 73.1693 87.3113 73.6453 87.742 73.94C88.1953 74.212 88.6827 74.348 89.204 74.348ZM106.636 77.408C104.369 77.408 102.578 76.4447 101.264 74.518C99.949 72.5687 99.2916 69.758 99.2916 66.086C99.2916 62.414 99.949 59.6487 101.264 57.79C102.578 55.9087 104.369 54.968 106.636 54.968C108.902 54.968 110.693 55.9087 112.008 57.79C113.322 59.6713 113.98 62.4367 113.98 66.086C113.98 69.758 113.322 72.5687 112.008 74.518C110.693 76.4447 108.902 77.408 106.636 77.408ZM106.636 74.348C107.157 74.348 107.633 74.212 108.064 73.94C108.517 73.6453 108.902 73.1693 109.22 72.512C109.537 71.8547 109.786 71.0047 109.968 69.962C110.149 68.9193 110.24 67.6273 110.24 66.086C110.24 64.5673 110.149 63.298 109.968 62.278C109.786 61.2353 109.537 60.3967 109.22 59.762C108.902 59.1273 108.517 58.6853 108.064 58.436C107.633 58.164 107.157 58.028 106.636 58.028C106.114 58.028 105.627 58.164 105.174 58.436C104.743 58.6853 104.369 59.1273 104.052 59.762C103.734 60.3967 103.485 61.2353 103.304 62.278C103.122 63.298 103.032 64.5673 103.032 66.086C103.032 67.6273 103.122 68.9193 103.304 69.962C103.485 71.0047 103.734 71.8547 104.052 72.512C104.369 73.1693 104.743 73.6453 105.174 73.94C105.627 74.212 106.114 74.348 106.636 74.348ZM43.0552 102H45.3752V96.42H47.5952C50.7952 96.42 53.1352 94.94 53.1352 91.72C53.1352 88.4 50.7952 87.26 47.5152 87.26H43.0552V102ZM45.3752 94.56V89.14H47.2952C49.6352 89.14 50.8552 89.78 50.8552 91.72C50.8552 93.66 49.7352 94.56 47.3752 94.56H45.3752ZM55.8045 102H58.1045V95.14C58.7845 93.4 59.8645 92.78 60.7645 92.78C61.2045 92.78 61.4845 92.84 61.8645 92.96L62.2845 90.96C61.9445 90.8 61.5845 90.72 61.0445 90.72C59.8645 90.72 58.7045 91.56 57.9245 92.98H57.8645L57.6845 91H55.8045V102ZM68.1732 102.26C70.8932 102.26 73.3532 100.16 73.3532 96.5C73.3532 92.84 70.8932 90.72 68.1732 90.72C65.4532 90.72 62.9932 92.84 62.9932 96.5C62.9932 100.16 65.4532 102.26 68.1732 102.26ZM68.1732 100.38C66.4532 100.38 65.3732 98.84 65.3732 96.5C65.3732 94.18 66.4532 92.62 68.1732 92.62C69.9132 92.62 70.9932 94.18 70.9932 96.5C70.9932 98.84 69.9132 100.38 68.1732 100.38ZM79.8584 102.26C81.0984 102.26 82.2384 101.6 83.0584 100.76H83.1384L83.3184 102H85.1984V86.06H82.8984V90.14L82.9984 91.96C82.0984 91.2 81.2984 90.72 80.0384 90.72C77.5784 90.72 75.3184 92.94 75.3184 96.5C75.3184 100.16 77.0984 102.26 79.8584 102.26ZM80.3984 100.36C78.6784 100.36 77.6984 98.98 77.6984 96.48C77.6984 94.1 78.9384 92.64 80.4784 92.64C81.2984 92.64 82.0784 92.9 82.8984 93.64V99.02C82.0984 99.94 81.3184 100.36 80.3984 100.36ZM93.056 102.26C95.776 102.26 98.236 100.16 98.236 96.5C98.236 92.84 95.776 90.72 93.056 90.72C90.336 90.72 87.876 92.84 87.876 96.5C87.876 100.16 90.336 102.26 93.056 102.26ZM93.056 100.38C91.336 100.38 90.256 98.84 90.256 96.5C90.256 94.18 91.336 92.62 93.056 92.62C94.796 92.62 95.876 94.18 95.876 96.5C95.876 98.84 94.796 100.38 93.056 100.38ZM104.172 102.26C104.972 102.26 105.712 102.06 106.332 101.86L105.912 100.16C105.592 100.3 105.112 100.42 104.732 100.42C103.592 100.42 103.132 99.74 103.132 98.42V92.84H105.992V91H103.132V87.96H101.212L100.952 91L99.2324 91.12V92.84H100.832V98.4C100.832 100.72 101.692 102.26 104.172 102.26ZM111.653 102.26C112.453 102.26 113.193 102.06 113.813 101.86L113.393 100.16C113.073 100.3 112.593 100.42 112.213 100.42C111.073 100.42 110.613 99.74 110.613 98.42V92.84H113.473V91H110.613V87.96H108.693L108.433 91L106.713 91.12V92.84H108.313V98.4C108.313 100.72 109.173 102.26 111.653 102.26ZM115.883 102H118.183V91H115.883V102ZM117.023 88.94C117.863 88.94 118.463 88.4 118.463 87.56C118.463 86.74 117.863 86.2 117.023 86.2C116.183 86.2 115.603 86.74 115.603 87.56C115.603 88.4 116.183 88.94 117.023 88.94Z" fill="white"/>
</g>
</svg>
