<svg width="24" height="25" viewBox="0 0 24 25" fill="none" xmlns="http://www.w3.org/2000/svg">
<rect width="24" height="25" fill="#E5E5E5"/>
<g id="Vetrina Live Dashboard">
<rect width="1440" height="1457" transform="translate(-1073 -214)" fill="#F8F9FB"/>
<rect id="Rectangle 360" x="-817" y="-154" width="1184" height="182" fill="url(#paint0_linear_0_1)"/>
<g id="Frame 796">
<g id="Frame 792">
<g id="Frame 275" filter="url(#filter0_dd_0_1)">
<rect x="-24" y="-25" width="350" height="289" rx="10" fill="white"/>
<g id="Frame 282">
<g id="Frame 290">
<g id="Icon / tool">
<path id="Vector" d="M14.7 6.79998C14.5168 6.98691 14.4142 7.23823 14.4142 7.49998C14.4142 7.76173 14.5168 8.01305 14.7 8.19998L16.3 9.79998C16.4869 9.98321 16.7383 10.0858 17 10.0858C17.2618 10.0858 17.5131 9.98321 17.7 9.79998L21.47 6.02998C21.9728 7.14117 22.1251 8.37921 21.9065 9.57913C21.6878 10.779 21.1087 11.8838 20.2463 12.7463C19.3839 13.6087 18.2791 14.1878 17.0792 14.4064C15.8792 14.6251 14.6412 14.4728 13.53 13.97L6.62001 20.88C6.22218 21.2778 5.68262 21.5013 5.12001 21.5013C4.5574 21.5013 4.01783 21.2778 3.62001 20.88C3.22218 20.4822 2.99869 19.9426 2.99869 19.38C2.99869 18.8174 3.22218 18.2778 3.62001 17.88L10.53 10.97C10.0272 9.85879 9.87492 8.62075 10.0936 7.42083C10.3122 6.22092 10.8913 5.11614 11.7537 4.2537C12.6162 3.39127 13.721 2.81215 14.9209 2.59352C16.1208 2.3749 17.3588 2.52714 18.47 3.02998L14.71 6.78998L14.7 6.79998Z" stroke="#103B66" stroke-width="2" stroke-linecap="round" stroke-linejoin="round"/>
</g>
</g>
</g>
</g>
</g>
</g>
</g>
<defs>
<filter id="filter0_dd_0_1" x="-32" y="-29" width="366" height="305" filterUnits="userSpaceOnUse" color-interpolation-filters="sRGB">
<feFlood flood-opacity="0" result="BackgroundImageFix"/>
<feColorMatrix in="SourceAlpha" type="matrix" values="0 0 0 0 0 0 0 0 0 0 0 0 0 0 0 0 0 0 127 0" result="hardAlpha"/>
<feOffset dy="4"/>
<feGaussianBlur stdDeviation="4"/>
<feColorMatrix type="matrix" values="0 0 0 0 0.196487 0 0 0 0 0.196487 0 0 0 0 0.279476 0 0 0 0.06 0"/>
<feBlend mode="multiply" in2="BackgroundImageFix" result="effect1_dropShadow_0_1"/>
<feColorMatrix in="SourceAlpha" type="matrix" values="0 0 0 0 0 0 0 0 0 0 0 0 0 0 0 0 0 0 127 0" result="hardAlpha"/>
<feOffset dy="4"/>
<feGaussianBlur stdDeviation="2"/>
<feColorMatrix type="matrix" values="0 0 0 0 0.196487 0 0 0 0 0.196487 0 0 0 0 0.279476 0 0 0 0.08 0"/>
<feBlend mode="multiply" in2="effect1_dropShadow_0_1" result="effect2_dropShadow_0_1"/>
<feBlend mode="normal" in="SourceGraphic" in2="effect2_dropShadow_0_1" result="shape"/>
</filter>
<linearGradient id="paint0_linear_0_1" x1="-225" y1="-154" x2="-225" y2="86.3227" gradientUnits="userSpaceOnUse">
<stop stop-color="#21B8F9"/>
<stop offset="1" stop-color="#21B8F9" stop-opacity="0"/>
</linearGradient>
</defs>
</svg>
