<svg width="24" height="24" viewBox="0 0 24 24" fill="none" xmlns="http://www.w3.org/2000/svg">
<rect width="24" height="24" fill="#E5E5E5"/>
<g id="Vetrina Live Dashboard">
<rect width="1440" height="1457" transform="translate(-1378 -107)" fill="#F8F9FB"/>
<rect id="Rectangle 360" x="-1122" y="-47" width="1184" height="182" fill="url(#paint0_linear_0_1)"/>
<g id="Group 256">
<g id="Icon / external-link">
<path id="Vector" d="M18 13V19C18 19.5304 17.7893 20.0391 17.4142 20.4142C17.0391 20.7893 16.5304 21 16 21H5C4.46957 21 3.96086 20.7893 3.58579 20.4142C3.21071 20.0391 3 19.5304 3 19V8C3 7.46957 3.21071 6.96086 3.58579 6.58579C3.96086 6.21071 4.46957 6 5 6H11" stroke="white" stroke-width="2" stroke-linecap="round" stroke-linejoin="round"/>
<path id="Vector_2" d="M15 3H21V9" stroke="white" stroke-width="2" stroke-linecap="round" stroke-linejoin="round"/>
<path id="Vector_3" d="M10 14L21 3" stroke="white" stroke-width="2" stroke-linecap="round" stroke-linejoin="round"/>
</g>
</g>
</g>
<defs>
<linearGradient id="paint0_linear_0_1" x1="-530" y1="-47" x2="-530" y2="193.323" gradientUnits="userSpaceOnUse">
<stop stop-color="#21B8F9"/>
<stop offset="1" stop-color="#21B8F9" stop-opacity="0"/>
</linearGradient>
</defs>
</svg>
