<svg width="20" height="21" viewBox="0 0 20 21" fill="none" xmlns="http://www.w3.org/2000/svg">
<rect width="20" height="21" fill="#E5E5E5"/>
<g id="Vetrina Live Dashboard">
<rect width="1440" height="1457" transform="translate(-320 -215)" fill="#F8F9FB"/>
<rect id="Rectangle 360" x="-64" y="-155" width="1184" height="182" fill="url(#paint0_linear_0_1)"/>
<g id="Frame 796">
<g id="Frame 795">
<g id="Frame 794">
<g id="Frame 280" filter="url(#filter0_dd_0_1)">
<rect x="-24" y="-26" width="349" height="220" rx="10" fill="white"/>
<g id="Frame 294">
<g id="Frame 290">
<g id="Icon / eye" clip-path="url(#clip0_0_1)">
<path id="Vector" d="M0.833344 10.5C0.833344 10.5 4.16668 3.83334 10 3.83334C15.8333 3.83334 19.1667 10.5 19.1667 10.5C19.1667 10.5 15.8333 17.1667 10 17.1667C4.16668 17.1667 0.833344 10.5 0.833344 10.5Z" stroke="#103B66" stroke-width="2" stroke-linecap="round" stroke-linejoin="round"/>
<path id="Vector_2" d="M10 13C11.3807 13 12.5 11.8807 12.5 10.5C12.5 9.11929 11.3807 8 10 8C8.61929 8 7.5 9.11929 7.5 10.5C7.5 11.8807 8.61929 13 10 13Z" stroke="#103B66" stroke-width="2" stroke-linecap="round" stroke-linejoin="round"/>
</g>
</g>
</g>
</g>
</g>
</g>
</g>
</g>
<defs>
<filter id="filter0_dd_0_1" x="-32" y="-30" width="365" height="236" filterUnits="userSpaceOnUse" color-interpolation-filters="sRGB">
<feFlood flood-opacity="0" result="BackgroundImageFix"/>
<feColorMatrix in="SourceAlpha" type="matrix" values="0 0 0 0 0 0 0 0 0 0 0 0 0 0 0 0 0 0 127 0" result="hardAlpha"/>
<feOffset dy="4"/>
<feGaussianBlur stdDeviation="4"/>
<feColorMatrix type="matrix" values="0 0 0 0 0.196487 0 0 0 0 0.196487 0 0 0 0 0.279476 0 0 0 0.06 0"/>
<feBlend mode="multiply" in2="BackgroundImageFix" result="effect1_dropShadow_0_1"/>
<feColorMatrix in="SourceAlpha" type="matrix" values="0 0 0 0 0 0 0 0 0 0 0 0 0 0 0 0 0 0 127 0" result="hardAlpha"/>
<feOffset dy="4"/>
<feGaussianBlur stdDeviation="2"/>
<feColorMatrix type="matrix" values="0 0 0 0 0.196487 0 0 0 0 0.196487 0 0 0 0 0.279476 0 0 0 0.08 0"/>
<feBlend mode="multiply" in2="effect1_dropShadow_0_1" result="effect2_dropShadow_0_1"/>
<feBlend mode="normal" in="SourceGraphic" in2="effect2_dropShadow_0_1" result="shape"/>
</filter>
<linearGradient id="paint0_linear_0_1" x1="528" y1="-155" x2="528" y2="85.3227" gradientUnits="userSpaceOnUse">
<stop stop-color="#21B8F9"/>
<stop offset="1" stop-color="#21B8F9" stop-opacity="0"/>
</linearGradient>
<clipPath id="clip0_0_1">
<rect width="20" height="20" fill="white" transform="translate(0 0.5)"/>
</clipPath>
</defs>
</svg>
